<svg width="70" height="70" fill="none" xmlns="http://www.w3.org/2000/svg"><g clip-path="url(#clip0)" fill-rule="evenodd" clip-rule="evenodd"><path d="M26.198 2A6.598 6.598 0 0019.6 8.599c-.003 3.64 2.953 6.596 6.601 6.598h6.601V8.601c.003-3.64-2.953-6.596-6.604-6.601.003 0 .003 0 0 0zm0 17.6H8.601c-3.649.003-6.604 2.958-6.601 6.599-.006 3.64 2.95 6.596 6.598 6.601h17.6a6.6 6.6 0 100-13.2z" fill="#36C5F0"/><path d="M68 26.199c.003-3.641-2.953-6.596-6.601-6.599-3.648.003-6.604 2.958-6.601 6.599V32.8h6.6A6.6 6.6 0 0068 26.199zm-17.6 0v-17.6C50.403 4.96 47.45 2.005 43.8 2c-3.648.003-6.603 2.958-6.6 6.599v17.6c-.006 3.64 2.95 6.596 6.598 6.601a6.6 6.6 0 006.6-6.601z" fill="#2EB67D"/><path d="M43.799 68c3.648-.003 6.604-2.958 6.6-6.599.004-3.64-2.952-6.596-6.6-6.598h-6.601V61.4c-.003 3.639 2.952 6.594 6.6 6.599zm0-17.603h17.6c3.648-.002 6.604-2.957 6.601-6.598.005-3.642-2.95-6.596-6.598-6.602h-17.6c-3.649.003-6.604 2.958-6.602 6.599a6.599 6.599 0 006.599 6.601z" fill="#ECB22E"/><path d="M2 43.799c-.003 3.64 2.953 6.596 6.601 6.598 3.648-.002 6.604-2.957 6.601-6.598V37.2h-6.6c-3.651.003-6.606 2.958-6.602 6.6zm17.6 0v17.6c-.005 3.64 2.95 6.596 6.599 6.601 3.648-.003 6.603-2.957 6.6-6.599V43.804c.006-3.641-2.95-6.596-6.598-6.601a6.594 6.594 0 00-6.6 6.596s0 .002 0 0z" fill="#E01E5A"/></g><defs><clipPath id="clip0"><path fill="#fff" d="M2 2h66v66H2z"/></clipPath></defs></svg>