<?xml version="1.0" encoding="UTF-8"?><svg id="Warstwa_1" xmlns="http://www.w3.org/2000/svg" viewBox="0 0 595.28 141.73"><defs><style>.cls-1,.cls-2{fill:#fff;}.cls-3{letter-spacing:0em;}.cls-4{letter-spacing:0em;}.cls-2{font-family:Roboto-Regular, Roboto;font-size:25px;}</style></defs><path class="cls-1" d="M471.5,81.22h-12.39c-.74,0-1.34-.53-1.49-1.25l-.35-1.66c-.09-.45-.65-.63-.97-.3-2.66,2.73-6.18,4.1-10.56,4.1s-8.35-1.36-11.51-4.09c-3.16-2.73-4.74-6.16-4.74-10.29,0-5.19,1.92-9.12,5.75-11.77,3.84-2.66,9.41-3.98,16.73-3.98h4c.33,0,.6-.27,.6-.6v-1.93c0-4.42-1.9-6.63-5.71-6.63-3.03,0-4.77,1.29-5.2,3.86-.13,.79-.77,1.39-1.57,1.39-1.99,0-5.65,0-8.65,0-2.82,0-4.84-2.87-3.72-5.46,.96-2.22,2.57-4.16,4.83-5.81,3.94-2.89,8.96-4.33,15.07-4.33s10.93,1.49,14.47,4.47c3.54,2.98,5.36,7.07,5.44,12.26v21.2m-22.22,1.11c1.86,0,3.4-.4,4.62-1.19,1.17-.76,2.02-1.61,2.55-2.56,.05-.09,.08-.2,.08-.31v-5.33c0-1.19-.97-2.16-2.16-2.16h-2.18c-5.19,0-7.79,2.33-7.79,6.99,0,1.36,.46,2.46,1.37,3.3,.91,.84,2.08,1.26,3.5,1.26Z"/><g><path class="cls-1" d="M147.53,63.38l-2.18,2.18c-1.3,1.3-2.03,3.06-2.03,4.89v10.77h-14.91V33.18c0-.41,.33-.74,.74-.74h13.51c.37,0,.67,.3,.67,.67v16.19l1.5-1.99,8.65-10.77c1.64-2.04,4.11-3.22,6.72-3.22h11.31c.96,0,1.48,1.13,.86,1.86l-15.19,17.84,15.8,24.9c.9,1.43-.12,3.29-1.81,3.29h-11.1c-1.3,0-2.49-.69-3.15-1.8l-9.39-16.03Z"/><path class="cls-1" d="M175.99,56.83c0-4.78,.93-9.04,2.79-12.77,1.86-3.73,4.53-6.6,8.01-8.61,3.48-2.01,7.57-3.01,12.26-3.01,7.17,0,12.82,2.22,16.95,6.66,4.13,4.44,6.2,10.48,6.2,18.12v.53c0,7.47-2.07,13.39-6.22,17.77-4.15,4.38-9.76,6.57-16.84,6.57s-12.29-2.04-16.42-6.13c-4.13-4.09-6.36-9.63-6.68-16.62l-.04-2.52Zm14.91,.93c0,4.43,.69,7.67,2.08,9.74,1.39,2.07,3.44,3.1,6.15,3.1,7.62,0,8.14-7.4,8.14-12.26v-1.5c0-8.59-2.74-12.88-8.23-12.88-4.99,0-7.69,3.7-8.1,11.11l-.04,2.7Z"/><path class="cls-1" d="M242.63,35.22l.32,3.73c3.3-4.34,7.86-6.51,13.68-6.51,4.99,0,8.71,1.49,11.17,4.47,2.46,2.98,3.74,7.47,3.83,13.45v30.85h-7.74c-3.99,0-7.22-3.23-7.22-7.22v-23.01c0-2.42-.49-4.2-1.46-5.33-.97-1.14-2.74-1.7-5.31-1.7-2.92,0-5.09,1.15-6.51,3.45v33.81h-14.91V33.33h12.09c1.07,0,1.96,.82,2.06,1.89Z"/><path class="cls-1" d="M304.96,67.76c0-1.27-.66-2.29-1.99-3.05-1.33-.77-3.85-1.56-7.57-2.39-3.72-.83-6.79-1.91-9.21-3.25-2.42-1.34-4.26-2.97-5.53-4.89-1.27-1.92-1.9-4.12-1.9-6.59,0-4.4,1.81-8.02,5.44-10.87,3.63-2.85,8.38-4.27,14.25-4.27,6.31,0,11.39,1.43,15.23,4.29,3.34,2.49,5.23,5.67,5.66,9.53,.1,.94-.66,1.75-1.6,1.75h-13.26c0-3.84-2.02-5.75-6.06-5.75-1.56,0-2.88,.44-3.94,1.31-1.06,.87-1.59,1.95-1.59,3.25s.65,2.41,1.95,3.23c1.3,.83,3.37,1.5,6.22,2.04,2.85,.53,5.35,1.17,7.5,1.9,7.2,2.48,10.8,6.92,10.8,13.32,0,4.37-1.94,7.92-5.82,10.67-3.88,2.74-8.9,4.12-15.07,4.12-4.1,0-7.76-.74-10.98-2.21-3.22-1.48-5.72-3.48-7.52-6.02-.86-1.22-1.52-2.46-1.97-3.74-.73-2.09,.86-4.27,3.07-4.27h10.14c.06,2.21,.8,3.83,2.21,4.85,1.42,1.02,3.23,1.53,5.44,1.53,2.04,0,3.56-.41,4.58-1.24,1.02-.83,1.53-1.9,1.53-3.23Z"/><path class="cls-1" d="M343.68,31.01v2.33h6.43c.8,0,1.44,.65,1.44,1.44v8.91h-6.86c-.56,0-1.02,.46-1.02,1.02v20.89c0,1.8,.32,3.05,.97,3.76,.65,.71,1.93,1.06,3.85,1.06,1.47,0,2.71-.09,3.72-.27v10.67c-2.68,.86-5.49,1.28-8.41,1.28-5.13,0-8.93-1.21-11.37-3.63-2.45-2.42-3.67-6.09-3.67-11.02v-23.77h-2.4c-2.05,0-3.71-1.66-3.71-3.71v-5.3c0-.75,.6-1.36,1.35-1.37l4.69-.07v-.82c0-1.05,.84-1.9,1.89-1.91l12.36-.17c.39-.05,.74,.26,.74,.65Z"/><path class="cls-1" d="M380.6,82.1c-7.35,0-13.29-2.19-17.84-6.57-4.54-4.38-6.82-10.08-6.82-17.11v-1.24c0-4.9,.91-9.22,2.72-12.97,1.81-3.75,4.46-6.65,7.94-8.7,3.48-2.05,7.61-3.08,12.39-3.08,6.73,0,12.04,2.09,15.93,6.26,3.89,4.18,5.84,10,5.84,17.46v2c0,2.1-1.7,3.8-3.8,3.8h-25.85c.53,2.69,1.7,4.8,3.5,6.33,1.8,1.53,4.13,2.3,6.99,2.3,3.54,0,6.5-.93,8.88-2.79,1.37-1.07,3.37-.77,4.49,.55l4.51,5.33c-1.86,2.57-4.49,4.61-7.9,6.13-3.41,1.52-7.07,2.28-11,2.28Zm-1.68-38.15c-3.84,0-6.31,2.24-7.41,6.71-.25,1,.54,1.96,1.57,1.96h13.1v-1.15c.06-2.39-.55-4.24-1.81-5.55-1.27-1.31-3.08-1.97-5.44-1.97Z"/><path class="cls-1" d="M419.2,81.22h-11.66V25.83c0-1.31,.88-2.46,2.14-2.8l9.03-2.46c1.91-.52,3.78,.92,3.78,2.89v54.45c0,1.82-1.48,3.3-3.3,3.3Z"/><path class="cls-1" d="M500.05,70.6c2.09,0,3.72-.57,4.87-1.7,1.15-1.14,1.71-2.72,1.68-4.76h13.99c0,5.25-1.88,9.56-5.64,12.92s-8.61,5.04-14.54,5.04c-6.96,0-12.45-2.18-16.46-6.55-4.01-4.37-6.02-10.42-6.02-18.15v-.62c0-4.84,.89-9.11,2.68-12.81,1.78-3.7,4.36-6.55,7.72-8.54,3.36-1.99,7.35-2.99,11.95-2.99,6.22,0,11.17,1.73,14.83,5.18,3.42,3.23,5.25,7.54,5.47,12.91,.02,.61-.48,1.12-1.09,1.12h-10.81c-1.08,0-2.03-.77-2.18-1.83-.23-1.6-.8-2.9-1.69-3.88-1.21-1.33-2.83-1.99-4.87-1.99-3.87,0-6.12,2.46-6.77,7.39-.21,1.56-.31,3.72-.31,6.46,0,4.81,.58,8.14,1.73,10,1.15,1.86,2.98,2.79,5.49,2.79Z"/><path class="cls-1" d="M540.69,33.33c1.24,0,2.24,1,2.24,2.24v47.28c-.03,5.67-1.65,10.03-4.87,13.1-3.22,3.07-7.7,4.6-13.45,4.6h-.07c-3.87,0-6.96-3.24-6.96-7.11v-.36c0-2.29,1.88-4.17,4.17-4.17h.03c4.13,0,6.2-2.05,6.2-6.15V40.28c0-3.84,3.11-6.95,6.95-6.95h5.77Z"/><path class="cls-1" d="M591.18,81.22h-12.39c-.74,0-1.34-.53-1.49-1.25l-.35-1.66c-.09-.45-.65-.63-.97-.3-2.66,2.73-6.18,4.1-10.56,4.1s-8.35-1.36-11.51-4.09c-3.16-2.73-4.74-6.16-4.74-10.29,0-5.19,1.92-9.12,5.75-11.77,3.84-2.66,9.41-3.98,16.73-3.98h4c.33,0,.6-.27,.6-.6v-1.93c0-4.42-1.9-6.63-5.71-6.63-3.03,0-4.77,1.29-5.2,3.86-.13,.79-.77,1.39-1.57,1.39-1.99,0-5.65,0-8.65,0-2.82,0-4.84-2.87-3.72-5.46,.96-2.22,2.57-4.16,4.83-5.81,3.94-2.89,8.96-4.33,15.07-4.33s10.93,1.49,14.47,4.47c3.54,2.98,5.36,7.07,5.44,12.26v21.2m-22.22,1.11c1.86,0,3.4-.4,4.62-1.19,1.17-.76,2.02-1.61,2.55-2.56,.05-.09,.08-.2,.08-.31v-5.33c0-1.19-.97-2.16-2.16-2.16h-2.18c-5.19,0-7.79,2.33-7.79,6.99,0,1.36,.46,2.46,1.37,3.3,.91,.84,2.08,1.26,3.5,1.26Z"/></g><text class="cls-2" transform="translate(128.41 111.27)"><tspan x="0" y="0">AI </tspan><tspan class="cls-3" x="29.3" y="0">t</tspan><tspan x="37.22" y="0">ool for leads data live b</tspan><tspan class="cls-4" x="295.02" y="0">r</tspan><tspan x="303.23" y="0">owsing</tspan></text><path class="cls-1" d="M60.78,17.93h-16.74c-.76,0-1.38,.62-1.38,1.38v20.09c0,1.1-1.32,1.64-2.09,.87l-14.81-14.86c-.54-.54-1.41-.54-1.95,0l-9.03,9.05c-2.09,2.1-2.09,5.5,0,7.6l7.83,7.86,.05,.05c2.56,2.56,6.04,4,9.65,4h23.95c3.25,0,5.88-2.64,5.88-5.9V19.32c0-.76-.62-1.38-1.38-1.38Z"/><path class="cls-1" d="M104.15,76.3v-16.8c0-.76-.62-1.38-1.38-1.38h-20.03c-1.09,0-1.64-1.32-.87-2.1l14.81-14.86c.54-.54,.54-1.41,0-1.95l-9.02-9.05c-2.09-2.1-5.48-2.1-7.57,0l-7.83,7.86-.05,.05c-2.55,2.57-3.99,6.06-3.99,9.69v24.03c0,3.26,2.63,5.9,5.88,5.9h28.66c.76,0,1.38-.62,1.38-1.38Z"/><path class="cls-1" d="M44.05,117.96h16.74c.76,0,1.38-.62,1.38-1.38v-20.09c0-1.1,1.32-1.64,2.09-.87l14.81,14.86c.54,.54,1.41,.54,1.95,0l9.03-9.05c2.09-2.1,2.09-5.5,0-7.6l-7.83-7.86-.05-.05c-2.56-2.56-6.04-4-9.65-4h-23.95c-3.25,0-5.88,2.64-5.88,5.9v28.76c0,.76,.62,1.38,1.38,1.38Z"/><path class="cls-1" d="M1.46,59.54v16.8c0,.76,.62,1.38,1.38,1.38H22.86c1.09,0,1.64,1.32,.87,2.1l-14.81,14.86c-.54,.54-.54,1.41,0,1.95l9.02,9.05c2.09,2.1,5.48,2.1,7.57,0l7.83-7.86,.05-.05c2.55-2.57,3.99-6.06,3.99-9.69v-24.03c0-3.26-2.63-5.9-5.88-5.9H2.84c-.76,0-1.38,.62-1.38,1.38Z"/></svg>